<?xml version="1.0" encoding="UTF-8"?>
<!-- Generator: Adobe Illustrator 16.0.0, SVG Export Plug-In . SVG Version: 6.00 Build 0)  -->
<svg xmlns="http://www.w3.org/2000/svg" xmlns:xlink="http://www.w3.org/1999/xlink" version="1.1" id="Capa_1" x="0px" y="0px" width="254.25px" height="70.414px" viewBox="0 0 254.25 70.414" xml:space="preserve">
<g>
	<g>
		<g opacity="0.2">
			<path d="M49.623,15.021c-2.998-5.084-9.099-8.548-16.574-8.548c-12.114,0-23.581,8.728-25.619,19.499     c-2.041,10.773,6.12,19.502,18.226,19.502c3.18,0,6.316-0.609,9.25-1.693c-1.537,6.408-7.251,7.395-9.25,7.455     c-3.209,0.1-6.283-0.455-9.414-1.135c-4.086-0.887-9.565,0.613-10.107,3.689c-0.084,0.488,0.04,0.77,0.36,1.09     c1.861,1.844,4.046,3.088,6.471,3.863c4.269,1.365,8.642,1.764,13.076,1.396c2.741-0.223,5.41-0.848,7.929-2.041     c5.532-2.609,9.794-9.768,11.137-16.08c0.109-0.532,0.32-1.605,0.32-1.605L49.623,15.021z M27.373,36.396     c-6.462,0-10.831-4.666-9.741-10.425c1.093-5.756,7.222-10.424,13.694-10.424c3.2,0,5.878,1.146,7.642,2.992l-2.334,14.476     C34.097,35.089,30.788,36.396,27.373,36.396"></path>
			<path d="M77.43,6.338c-2.436,0.638-6.138,1.548-7.775,2.108c-2.381,0.815-4.839,1.613-7.082,2.76     c-3.105,1.585-5.934,3.56-7.755,6.494c-0.806,1.297-2.294,4.768-2.512,6.475L48.63,46.334h10.811l2.832-16.683h0.011     c0.131-0.846,0.307-1.77,0.633-2.969c0.935-3.434,3.436-5.649,6.92-6.877c1.941-0.685,3.558-1.335,5.699-2.095L77.43,6.338z"></path>
			<path d="M115.1,33.439c-0.491-0.435-1.214-0.583-1.99-0.69c-3.962-0.541-6.216,0.475-12.09,2.958l-0.211,0.076     c-0.219,0.102-0.439,0.195-0.664,0.287c-4.187,1.717-8.368,0.739-9.288,0.49c-1.395-0.467-2.621-1.185-3.596-2.097l32.12-11.814     v-0.931c-0.703-8.83-8.328-15.404-18.901-15.404c-12.393,0-24.121,9.001-26.204,20.106c-2.085,11.104,6.258,20.104,18.644,20.104     c9.061,0,17.771-4.818,22.608-11.759C115.764,34.192,115.47,33.769,115.1,33.439 M98.714,15.674c3.038,0,5.608,1.024,7.406,2.692     l-21.361,7.859C85.976,20.383,92.167,15.674,98.714,15.674"></path>
			<path d="M196.16,7.127c-0.326,1.99-0.668,3.687-0.945,5.492c-0.514,3.236-2.008,5.897-4.857,7.261     c-2.166,1.042-15.645,5.885-15.645,5.885l3.133-18.646h-10.197l-3.768,22.623l-17.607,6.412c-1.76,0.727-3.664,1.146-5.604,1.146     c-6.642,0-11.11-4.784-9.989-10.688c1.116-5.902,7.401-10.686,14.038-10.686c3.679,0,6.688,1.47,8.449,3.78l10.521-3.836     c-2.936-5.563-9.233-9.258-17.203-9.258c-12.418,0-24.183,8.951-26.274,20c-2.092,11.045,6.277,19.995,18.692,19.995     c3.062,0,6.072-0.549,8.91-1.523h0.004l14.379-5.252l-1.021,6.141h10.191c0.397-2.327,0.993-6.094,1.665-10.124     c2.328-0.86,7.921-2.783,9.195-3.271c0,0,5.5,8.841,8.043,12.993c0.187,0.295,0.361,0.43,0.715,0.428     c4.134-0.02,12.867-0.018,12.867-0.018s-7.215-11.686-10.654-17.269c0.47-0.202,0.894-0.373,1.312-0.562     c1.433-0.655,4.384-2.302,5.392-3.222c2.27-2.057,3.699-4.593,4.594-7.559c0.635-2.139,0.98-4.416,1.363-6.612     c0.207-1.181,0.41-1.638,0.621-3.628H196.16V7.127z"></path>
			<path d="M230.174,6.56c-12.404,0-24.16,8.947-26.256,19.982c-2.09,11.037,6.279,19.982,18.688,19.982     c12.41,0,24.16-8.945,26.256-19.982C250.949,15.506,242.586,6.56,230.174,6.56 M238.406,26.542     c-1.121,5.903-7.406,10.682-14.045,10.682c-6.625,0-11.096-4.779-9.984-10.682c1.117-5.9,7.41-10.68,14.033-10.68     C235.049,15.861,239.516,20.642,238.406,26.542"></path>
		</g>
		<g>
			<polygon fill="#FFFFFF" points="47.265,58.315 48.217,58.315 46.838,66.934 51.864,66.934 51.729,67.805 45.752,67.805    "></polygon>
			<polygon fill="#FFFFFF" points="68.909,66.934 68.769,67.801 62.419,67.801 63.934,58.315 70.085,58.315 69.948,59.186      64.74,59.186 64.203,62.559 68.849,62.559 68.713,63.409 64.069,63.409 63.505,66.934    "></polygon>
			<g>
				<polygon fill="#FFFFFF" points="47.227,58.329 48.175,58.329 46.8,66.948 51.826,66.948 51.699,67.817 45.714,67.817     "></polygon>
				<polygon fill="#FFFFFF" points="68.869,66.948 68.731,67.817 62.384,67.817 63.896,58.329 70.046,58.329 69.91,59.194       64.705,59.194 64.165,62.573 68.811,62.573 68.675,63.426 64.029,63.426 63.467,66.948     "></polygon>
				<path fill="#FFFFFF" d="M80.525,58.329h3.651c2.875,0,4.501,1.953,4.053,4.746c-0.442,2.791-2.69,4.742-5.561,4.742h-3.651      L80.525,58.329z M82.76,66.948c2.385,0,4.171-1.6,4.54-3.873c0.357-2.275-0.922-3.881-3.312-3.881h-2.651l-1.239,7.754H82.76z"></path>
				<path fill="#FFFFFF" d="M109.872,58.329h3.655c2.872,0,4.498,1.953,4.054,4.746c-0.444,2.791-2.691,4.742-5.562,4.742h-3.661      L109.872,58.329z M112.104,66.948c2.386,0,4.18-1.6,4.543-3.873c0.364-2.275-0.921-3.881-3.309-3.881h-2.656l-1.232,7.754      H112.104z"></path>
				<polygon fill="#FFFFFF" points="129.814,58.329 130.764,58.329 129.258,67.817 128.303,67.817     "></polygon>
				<path fill="#FFFFFF" d="M142.305,66.665l0.49-0.771c0.541,0.662,1.602,1.156,2.783,1.156c1.68,0,2.531-0.748,2.678-1.682      c0.418-2.607-5.363-1.008-4.809-4.514c0.219-1.396,1.443-2.607,3.729-2.607c1.01,0,2.012,0.313,2.645,0.842l-0.44,0.801      c-0.69-0.527-1.549-0.785-2.34-0.785c-1.64,0-2.498,0.771-2.647,1.723c-0.42,2.602,5.356,1.027,4.813,4.48      c-0.226,1.4-1.47,2.592-3.765,2.592C144.096,67.899,142.855,67.399,142.305,66.665"></path>
				<path fill="#FFFFFF" d="M224.947,66.665l0.49-0.771c0.541,0.662,1.604,1.156,2.787,1.156c1.672,0,2.522-0.748,2.676-1.682      c0.414-2.607-5.369-1.008-4.81-4.514c0.226-1.396,1.438-2.607,3.722-2.607c1.016,0,2.021,0.313,2.649,0.842l-0.446,0.801      c-0.688-0.527-1.545-0.785-2.339-0.785c-1.641,0-2.495,0.771-2.646,1.723c-0.414,2.602,5.363,1.027,4.814,4.48      c-0.23,1.4-1.468,2.592-3.767,2.592C226.74,67.899,225.494,67.399,224.947,66.665"></path>
				<path fill="#FFFFFF" d="M166.576,61.586c-0.322,2.018-1.9,3.232-4.186,3.232h-2.414l-0.472,2.998h-0.955l1.517-9.488h3.361      C165.713,58.329,166.898,59.549,166.576,61.586 M165.625,61.586c0.244-1.521-0.566-2.393-2.367-2.393h-2.379l-0.762,4.746h2.385      C164.299,63.94,165.391,63.075,165.625,61.586"></path>
				<polygon fill="#FFFFFF" points="177.574,58.329 178.518,58.329 177.15,66.948 182.176,66.948 182.041,67.817 176.059,67.817           "></polygon>
				<path fill="#FFFFFF" d="M198.545,65.284h-5.002l-1.479,2.533h-0.988l5.619-9.488h0.928l2.596,9.488h-1L198.545,65.284z       M198.33,64.469l-1.348-5.096l-2.965,5.096H198.33z"></path>
				<polygon fill="#FFFFFF" points="211.652,64.536 211.129,67.817 210.193,67.817 210.719,64.536 208.113,58.329 209.131,58.329       211.359,63.655 215.283,58.329 216.232,58.329     "></polygon>
			</g>
			<g>
				<path fill="#FFFFFF" d="M48.326,12.325c-2.996-5.079-9.101-8.546-16.574-8.546c-12.115,0-23.583,8.73-25.62,19.499      c-2.041,10.771,6.121,19.5,18.229,19.5c3.175,0,6.313-0.604,9.248-1.688c-1.535,6.408-7.251,7.393-9.248,7.451      c-3.209,0.104-6.283-0.451-9.414-1.131C10.861,46.518,5.38,48.02,4.84,51.096c-0.084,0.49,0.038,0.771,0.357,1.094      c1.861,1.84,4.046,3.082,6.474,3.861c4.269,1.363,8.641,1.764,13.071,1.393c2.745-0.223,5.413-0.846,7.931-2.039      c5.534-2.609,9.794-9.764,11.139-16.078c0.107-0.535,0.318-1.607,0.318-1.607L48.326,12.325z M26.076,33.705      c-6.463,0-10.829-4.671-9.738-10.427c1.09-5.756,7.22-10.422,13.689-10.422c3.202,0,5.881,1.146,7.644,2.99l-2.335,14.476      C32.8,32.396,29.491,33.705,26.076,33.705"></path>
				<path fill="#FFFFFF" d="M76.135,3.643c-2.438,0.64-6.141,1.548-7.778,2.11c-2.38,0.817-4.841,1.609-7.078,2.761      c-3.109,1.585-5.936,3.557-7.757,6.494c-0.808,1.296-2.296,4.766-2.512,6.475l-3.678,22.159h10.813l2.832-16.686h0.009      c0.131-0.844,0.309-1.767,0.633-2.968c0.935-3.433,3.438-5.651,6.92-6.875c1.941-0.687,3.56-1.337,5.698-2.097L76.135,3.643z"></path>
				<path fill="#FFFFFF" d="M113.803,30.746c-0.491-0.435-1.217-0.582-1.986-0.69c-3.966-0.538-6.218,0.475-12.096,2.958      l-0.209,0.073c-0.22,0.104-0.439,0.198-0.664,0.289c-4.184,1.717-8.365,0.741-9.285,0.491c-1.395-0.467-2.623-1.182-3.6-2.097      l32.124-11.813v-0.933c-0.705-8.829-8.331-15.401-18.904-15.401c-12.39,0-24.12,8.999-26.206,20.103      c-2.083,11.105,6.263,20.105,18.648,20.105c9.063,0,17.767-4.82,22.608-11.76C114.467,31.499,114.175,31.075,113.803,30.746       M97.417,12.981c3.04,0,5.612,1.021,7.406,2.693l-21.364,7.858C84.678,17.689,90.87,12.981,97.417,12.981"></path>
				<path fill="#FFFFFF" d="M194.863,4.434c-0.326,1.992-0.666,3.687-0.947,5.492c-0.51,3.236-2.006,5.894-4.855,7.26      c-2.164,1.042-15.646,5.886-15.646,5.886l3.14-18.645h-10.197l-3.771,22.621l-17.609,6.412      c-1.754,0.729-3.662,1.148-5.602,1.148c-6.641,0-11.113-4.785-9.994-10.693c1.119-5.898,7.404-10.685,14.043-10.685      c3.678,0,6.688,1.472,8.451,3.785l10.518-3.839c-2.936-5.562-9.233-9.257-17.201-9.257c-12.42,0-24.181,8.953-26.277,19.997      c-2.089,11.044,6.279,19.999,18.693,19.999c3.062,0,6.074-0.549,8.91-1.522h0.004l14.383-5.257l-1.024,6.144h10.19      c0.4-2.325,0.994-6.092,1.668-10.124c2.326-0.857,7.921-2.783,9.195-3.273c0,0,5.502,8.844,8.045,12.995      c0.183,0.295,0.357,0.434,0.713,0.428c4.129-0.018,12.867-0.014,12.867-0.014s-7.217-11.688-10.654-17.271      c0.468-0.202,0.892-0.374,1.31-0.562c1.435-0.657,4.384-2.306,5.392-3.222c2.27-2.059,3.703-4.593,4.594-7.563      c0.637-2.138,0.98-4.41,1.365-6.609c0.207-1.182,0.408-1.637,0.619-3.629h-10.32V4.434z"></path>
				<path fill="#FFFFFF" d="M228.879,3.862c-12.406,0-24.166,8.948-26.258,19.986c-2.088,11.037,6.279,19.982,18.688,19.982      c12.41,0,24.16-8.945,26.256-19.982C249.654,12.811,241.289,3.862,228.879,3.862 M237.109,23.849      c-1.123,5.9-7.406,10.682-14.043,10.682c-6.631,0-11.096-4.782-9.984-10.682c1.117-5.901,7.408-10.68,14.033-10.68      C233.752,13.168,238.223,17.947,237.109,23.849"></path>
				<g>
					<path fill="#FFFFFF" d="M245.701,44.088v-4.014h1.773c0.364,0,0.639,0.038,0.821,0.111c0.188,0.074,0.334,0.193,0.449,0.379       c0.112,0.186,0.166,0.385,0.166,0.607c0,0.283-0.103,0.521-0.281,0.718c-0.185,0.198-0.465,0.319-0.849,0.37       c0.138,0.066,0.242,0.136,0.314,0.203c0.16,0.139,0.305,0.317,0.445,0.535l0.695,1.088h-0.666l-0.527-0.836       c-0.158-0.238-0.289-0.422-0.387-0.555c-0.1-0.122-0.193-0.215-0.27-0.266c-0.076-0.057-0.156-0.088-0.24-0.105       c-0.063-0.014-0.164-0.02-0.295-0.02h-0.617v1.781h-0.533V44.088z M246.236,41.846h1.139c0.246,0,0.432-0.022,0.572-0.068       c0.137-0.057,0.24-0.134,0.311-0.247c0.066-0.106,0.105-0.228,0.105-0.356c0-0.193-0.066-0.346-0.201-0.467       c-0.145-0.127-0.359-0.188-0.652-0.188h-1.273V41.846L246.236,41.846z"></path>
					<path fill="#FFFFFF" d="M247.264,45.739c-1.955,0-3.549-1.585-3.549-3.548c0-1.958,1.594-3.548,3.549-3.548       c1.959,0,3.553,1.59,3.553,3.548C250.816,44.154,249.223,45.739,247.264,45.739 M247.264,38.941       c-1.795,0-3.256,1.457-3.256,3.25c0,1.797,1.461,3.261,3.256,3.261s3.256-1.464,3.256-3.261       C250.52,40.398,249.059,38.941,247.264,38.941"></path>
				</g>
			</g>
		</g>
		<g opacity="0.6">
			
				<linearGradient id="SVGID_1_" gradientUnits="userSpaceOnUse" x1="1.6538" y1="5.2114" x2="1.6538" y2="75.6172" gradientTransform="matrix(1 0 0 -1 24.9448 61.7725)">
				<stop offset="0" style="stop-color:#A3A3A3"></stop>
				<stop offset="1" style="stop-color:#000000"></stop>
			</linearGradient>
			<path fill="url(#SVGID_1_)" d="M48.355,12.325c-2.994-5.079-9.099-8.546-16.572-8.546c-12.117,0-23.583,8.73-25.62,19.499     c-2.043,10.771,6.121,19.5,18.224,19.5c3.181,0,6.316-0.604,9.25-1.688c-1.532,6.408-7.249,7.393-9.25,7.451     c-3.207,0.104-6.283-0.451-9.412-1.131c-4.086-0.891-9.567,0.611-10.107,3.688c-0.082,0.49,0.038,0.771,0.36,1.094     c1.859,1.84,4.046,3.082,6.471,3.861c4.268,1.363,8.641,1.764,13.074,1.393c2.742-0.223,5.41-0.846,7.928-2.039     c5.537-2.609,9.794-9.764,11.14-16.078c0.111-0.535,0.317-1.607,0.317-1.607L48.355,12.325z M26.104,33.705     c-6.46,0-10.829-4.671-9.736-10.427c1.089-5.756,7.218-10.422,13.69-10.422c3.2,0,5.88,1.146,7.642,2.99l-2.332,14.476     C32.832,32.396,29.52,33.705,26.104,33.705"></path>
			
				<linearGradient id="SVGID_2_" gradientUnits="userSpaceOnUse" x1="36.8188" y1="5.2109" x2="36.8188" y2="75.6179" gradientTransform="matrix(1 0 0 -1 24.9448 61.7725)">
				<stop offset="0" style="stop-color:#A3A3A3"></stop>
				<stop offset="1" style="stop-color:#000000"></stop>
			</linearGradient>
			<path fill="url(#SVGID_2_)" d="M76.166,3.643c-2.438,0.64-6.143,1.548-7.779,2.11c-2.379,0.817-4.839,1.609-7.08,2.761     c-3.104,1.585-5.934,3.557-7.755,6.494c-0.807,1.296-2.296,4.766-2.512,6.475l-3.678,22.159h10.813l2.832-16.686h0.009     c0.131-0.844,0.309-1.767,0.635-2.968c0.935-3.433,3.436-5.651,6.918-6.875c1.943-0.687,3.562-1.337,5.698-2.097L76.166,3.643z"></path>
			
				<linearGradient id="SVGID_3_" gradientUnits="userSpaceOnUse" x1="70.4551" y1="5.2114" x2="70.4551" y2="75.6191" gradientTransform="matrix(1 0 0 -1 24.9448 61.7725)">
				<stop offset="0" style="stop-color:#A3A3A3"></stop>
				<stop offset="1" style="stop-color:#000000"></stop>
			</linearGradient>
			<path fill="url(#SVGID_3_)" d="M113.834,30.746c-0.491-0.435-1.22-0.582-1.989-0.69c-3.966-0.538-6.218,0.475-12.094,2.958     l-0.211,0.073c-0.218,0.104-0.439,0.198-0.664,0.289c-4.184,1.717-8.364,0.741-9.285,0.491c-1.395-0.467-2.621-1.182-3.598-2.097     l32.119-11.813v-0.933c-0.698-8.829-8.325-15.401-18.901-15.401c-12.389,0-24.12,8.999-26.203,20.103     c-2.083,11.105,6.261,20.105,18.646,20.105c9.062,0,17.769-4.82,22.61-11.76C114.495,31.499,114.205,31.075,113.834,30.746      M97.448,12.981c3.041,0,5.609,1.021,7.404,2.693L83.49,23.533C84.709,17.689,90.901,12.981,97.448,12.981"></path>
			
				<linearGradient id="SVGID_4_" gradientUnits="userSpaceOnUse" x1="136.9727" y1="5.2124" x2="136.9727" y2="75.6161" gradientTransform="matrix(1 0 0 -1 24.9448 61.7725)">
				<stop offset="0" style="stop-color:#A3A3A3"></stop>
				<stop offset="1" style="stop-color:#000000"></stop>
			</linearGradient>
			<path fill="url(#SVGID_4_)" d="M194.891,4.434c-0.324,1.992-0.664,3.687-0.945,5.492c-0.508,3.236-2.004,5.894-4.854,7.26     c-2.163,1.042-15.647,5.886-15.647,5.886l3.143-18.645h-10.203l-3.766,22.621l-17.611,6.412     c-1.756,0.729-3.662,1.148-5.604,1.148c-6.639,0-11.111-4.785-9.992-10.693c1.121-5.898,7.404-10.685,14.043-10.685     c3.678,0,6.688,1.472,8.447,3.785l10.522-3.839c-2.938-5.562-9.235-9.257-17.202-9.257c-12.421,0-24.183,8.953-26.279,19.997     c-2.09,11.044,6.278,19.999,18.697,19.999c3.059,0,6.069-0.549,8.905-1.522h0.006l14.38-5.257l-1.021,6.144H170.1     c0.401-2.325,0.993-6.092,1.67-10.124c2.326-0.857,7.918-2.783,9.192-3.273c0,0,5.5,8.844,8.045,12.995     c0.185,0.295,0.356,0.434,0.714,0.428c4.131-0.018,12.87-0.014,12.87-0.014s-7.221-11.688-10.661-17.271     c0.469-0.202,0.895-0.374,1.313-0.562c1.434-0.657,4.383-2.306,5.391-3.222c2.271-2.059,3.703-4.593,4.594-7.563     c0.642-2.138,0.98-4.41,1.365-6.609c0.207-1.182,0.41-1.637,0.621-3.629h-10.322V4.434z"></path>
			
				<linearGradient id="SVGID_5_" gradientUnits="userSpaceOnUse" x1="200.1777" y1="5.2109" x2="200.1777" y2="75.618" gradientTransform="matrix(1 0 0 -1 24.9448 61.7725)">
				<stop offset="0" style="stop-color:#A3A3A3"></stop>
				<stop offset="1" style="stop-color:#000000"></stop>
			</linearGradient>
			<path fill="url(#SVGID_5_)" d="M228.904,3.862c-12.402,0-24.156,8.948-26.256,19.986c-2.086,11.037,6.283,19.982,18.688,19.982     c12.408,0,24.16-8.945,26.259-19.982C249.684,12.811,241.316,3.862,228.904,3.862 M237.139,23.849     c-1.123,5.9-7.406,10.682-14.043,10.682c-6.627,0-11.096-4.782-9.984-10.682c1.117-5.901,7.406-10.68,14.033-10.68     C233.781,13.168,238.248,17.947,237.139,23.849"></path>
			<g>
				
					<linearGradient id="SVGID_6_" gradientUnits="userSpaceOnUse" x1="222.5547" y1="5.2139" x2="222.5547" y2="75.6154" gradientTransform="matrix(1 0 0 -1 24.9448 61.7725)">
					<stop offset="0" style="stop-color:#A3A3A3"></stop>
					<stop offset="1" style="stop-color:#000000"></stop>
				</linearGradient>
				<path fill="url(#SVGID_6_)" d="M245.732,44.088v-4.014h1.774c0.363,0,0.634,0.038,0.815,0.111      c0.193,0.074,0.334,0.193,0.451,0.379c0.115,0.186,0.164,0.385,0.164,0.607c0,0.283-0.098,0.521-0.281,0.718      c-0.182,0.198-0.463,0.319-0.846,0.37c0.14,0.066,0.242,0.136,0.316,0.203c0.158,0.139,0.305,0.317,0.443,0.535l0.695,1.088      h-0.664l-0.529-0.836c-0.156-0.238-0.291-0.422-0.385-0.555c-0.103-0.122-0.195-0.215-0.271-0.266      c-0.074-0.057-0.156-0.088-0.24-0.105c-0.061-0.014-0.16-0.02-0.295-0.02h-0.611v1.781h-0.537V44.088z M246.271,41.846h1.133      c0.248,0,0.432-0.022,0.572-0.068c0.139-0.057,0.239-0.134,0.311-0.247c0.07-0.106,0.107-0.228,0.107-0.356      c0-0.193-0.07-0.346-0.201-0.467c-0.146-0.127-0.359-0.188-0.652-0.188h-1.27V41.846z"></path>
				
					<linearGradient id="SVGID_7_" gradientUnits="userSpaceOnUse" x1="222.3506" y1="5.2119" x2="222.3506" y2="75.619" gradientTransform="matrix(1 0 0 -1 24.9448 61.7725)">
					<stop offset="0" style="stop-color:#A3A3A3"></stop>
					<stop offset="1" style="stop-color:#000000"></stop>
				</linearGradient>
				<path fill="url(#SVGID_7_)" d="M247.297,45.739c-1.957,0-3.553-1.585-3.553-3.548c0-1.958,1.596-3.548,3.553-3.548      c1.955,0,3.549,1.59,3.549,3.548C250.846,44.154,249.252,45.739,247.297,45.739 M247.297,38.941      c-1.799,0-3.262,1.457-3.262,3.25c0,1.797,1.463,3.261,3.262,3.261c1.791,0,3.254-1.464,3.254-3.261      C250.551,40.398,249.088,38.941,247.297,38.941"></path>
			</g>
		</g>
		<g opacity="0.7">
			
				<linearGradient id="SVGID_8_" gradientUnits="userSpaceOnUse" x1="1.1963" y1="63.73" x2="1.1963" y2="39.0607" gradientTransform="matrix(1 0 0 -1 24.9448 61.7725)">
				<stop offset="0.4712" style="stop-color:#FFFFFF"></stop>
				<stop offset="1" style="stop-color:#FFFFFF;stop-opacity:0"></stop>
			</linearGradient>
			<path fill="url(#SVGID_8_)" d="M31.327,4.585c-11.291,0-22.009,8.106-23.893,18.069c-0.82,4.323,0.178,8.455,2.812,11.634     c3.042,3.675,8.031,5.782,13.686,5.782c2.893,0,5.8-0.533,8.641-1.583l3.081-1.138l-0.764,3.195     c-1.507,6.305-6.818,8.68-10.908,8.799c-0.274,0.008-0.556,0.014-0.834,0.014c-2.95,0-5.732-0.475-9.001-1.186     c-0.65-0.141-1.354-0.211-2.092-0.211c-2.996,0-5.347,1.129-5.833,2.232c1.558,1.479,3.375,2.531,5.56,3.234     c2.989,0.953,6.165,1.439,9.437,1.439h0.001c0.966,0,1.959-0.045,2.952-0.127c2.73-0.221,5.124-0.836,7.323-1.877     c5.114-2.41,8.988-9.297,10.173-14.855c0.107-0.52,0.31-1.571,0.311-1.574l4.08-24.697C43.158,7.313,37.578,4.585,31.327,4.585z      M36.541,30.31l-0.517,0.422c-2.979,2.438-6.665,3.78-10.375,3.78c-3.824,0-7.245-1.482-9.385-4.068     c-1.93-2.332-2.668-5.33-2.077-8.444c1.235-6.534,8.15-11.851,15.415-11.851c3.571,0,6.736,1.254,8.912,3.533l0.603,0.631     L36.541,30.31z"></path>
			
				<linearGradient id="SVGID_9_" gradientUnits="userSpaceOnUse" x1="36.3101" y1="63.731" x2="36.3101" y2="39.0622" gradientTransform="matrix(1 0 0 -1 24.9448 61.7725)">
				<stop offset="0.4712" style="stop-color:#FFFFFF"></stop>
				<stop offset="1" style="stop-color:#FFFFFF;stop-opacity:0"></stop>
			</linearGradient>
			<path fill="url(#SVGID_9_)" d="M67.721,6.731c-2.057,0.702-4.184,1.427-6.068,2.394c-3.428,1.752-5.672,3.612-7.064,5.857     c-0.725,1.165-2.088,4.391-2.262,5.77l-3.349,20.181h7.257l2.858-16.687c0.115-0.544,0.248-1.089,0.405-1.671     c1.035-3.799,3.812-6.589,8.031-8.072c0.963-0.34,1.847-0.672,2.756-1.013c0.631-0.237,1.273-0.478,1.962-0.73l1.284-7.691     c-1.943,0.5-3.978,1.033-5.031,1.395L67.721,6.731z"></path>
			
				<linearGradient id="SVGID_10_" gradientUnits="userSpaceOnUse" x1="69.9858" y1="63.7329" x2="69.9858" y2="39.0626" gradientTransform="matrix(1 0 0 -1 24.9448 61.7725)">
				<stop offset="0.4712" style="stop-color:#FFFFFF"></stop>
				<stop offset="1" style="stop-color:#FFFFFF;stop-opacity:0"></stop>
			</linearGradient>
			<path fill="url(#SVGID_10_)" d="M98.755,4.43c-11.565,0-22.545,8.375-24.476,18.67c-0.845,4.504,0.198,8.802,2.936,12.101     c3.123,3.762,8.219,5.922,13.983,5.922c7.847,0,15.799-3.963,20.556-10.17c-0.153-0.035-0.351-0.071-0.611-0.108     c-0.607-0.082-1.165-0.123-1.698-0.123c-2.466,0-4.651,0.924-9.004,2.765l-0.692,0.28c-0.219,0.101-0.442,0.195-0.666,0.287     c-1.816,0.745-3.818,1.124-5.948,1.124c-2.156,0-3.838-0.395-4.461-0.565l-0.096-0.029c-1.644-0.55-3.07-1.384-4.241-2.48     l-2.08-1.947l33.61-12.362C115.017,9.903,108.047,4.43,98.755,4.43z M80.667,25.326l0.647-3.102     c1.398-6.7,8.285-11.948,15.678-11.948c3.356,0,6.412,1.124,8.602,3.165l2.091,1.948L80.667,25.326z"></path>
			
				<linearGradient id="SVGID_11_" gradientUnits="userSpaceOnUse" x1="136.3799" y1="63.731" x2="136.3799" y2="39.0626" gradientTransform="matrix(1 0 0 -1 24.9448 61.7725)">
				<stop offset="0.4712" style="stop-color:#FFFFFF"></stop>
				<stop offset="1" style="stop-color:#FFFFFF;stop-opacity:0"></stop>
			</linearGradient>
			<path fill="url(#SVGID_11_)" d="M137.182,41.208c2.773,0,5.578-0.479,8.336-1.429l0.055-0.019l17.13-6.263l-1.179,7.071h6.636     c0.149-0.912,0.317-1.947,0.502-3.072c0.276-1.708,0.588-3.615,0.92-5.585l0.168-1.004l0.955-0.354     c1.155-0.426,3.114-1.114,4.953-1.761c1.85-0.651,3.598-1.265,4.219-1.504l1.354-0.521l0.769,1.233c0,0,5.158,8.293,7.799,12.591     c2.574-0.008,6.464-0.01,9.187-0.01c-2.34-3.791-6.598-10.686-9.004-14.593l-1.068-1.73l2.4-1.031     c0.26-0.109,0.508-0.213,0.754-0.323c1.51-0.693,4.176-2.236,4.926-2.919c1.908-1.731,3.248-3.943,4.096-6.768     c0.514-1.722,0.838-3.608,1.148-5.431l0.168-0.976c0.072-0.408,0.143-0.734,0.215-1.062c0.035-0.167,0.07-0.331,0.105-0.507     h-6.804c-0.069,0.399-0.142,0.789-0.211,1.175c-0.17,0.953-0.336,1.875-0.481,2.829c-0.646,4.092-2.66,7.055-5.832,8.576     c-2.222,1.067-15.26,5.755-15.814,5.954l-2.824,1.015l3.293-19.556h-6.635l-3.691,22.164l-18.574,6.762     c-1.98,0.822-4.092,1.254-6.203,1.254c-3.916,0-7.414-1.515-9.6-4.154c-1.973-2.379-2.725-5.442-2.122-8.625     c1.269-6.679,8.342-12.113,15.767-12.113c3.584,0,6.782,1.252,8.979,3.477l7.358-2.684c-3.047-4.162-8.343-6.591-14.567-6.591     c-11.599,0-22.611,8.33-24.553,18.567c-0.841,4.447,0.188,8.698,2.899,11.97C126.241,39.042,131.369,41.208,137.182,41.208z"></path>
			
				<linearGradient id="SVGID_12_" gradientUnits="userSpaceOnUse" x1="199.7207" y1="63.7329" x2="199.7207" y2="39.0629" gradientTransform="matrix(1 0 0 -1 24.9448 61.7725)">
				<stop offset="0.4712" style="stop-color:#FFFFFF"></stop>
				<stop offset="1" style="stop-color:#FFFFFF;stop-opacity:0"></stop>
			</linearGradient>
			<path fill="url(#SVGID_12_)" d="M228.449,4.67c-11.58,0-22.584,8.325-24.529,18.556c-0.842,4.44,0.188,8.687,2.896,11.954     c3.129,3.777,8.256,5.943,14.063,5.943c11.584,0,22.591-8.323,24.533-18.553c0.84-4.442-0.188-8.689-2.896-11.958     C239.387,6.835,234.262,4.67,228.449,4.67z M238.408,23.224c-1.27,6.681-8.344,12.114-15.77,12.114     c-3.904,0-7.396-1.511-9.582-4.146c-1.972-2.376-2.728-5.437-2.127-8.618c1.262-6.679,8.332-12.112,15.758-12.112     c3.912,0,7.408,1.512,9.596,4.147C238.252,16.984,239.006,20.044,238.408,23.224z"></path>
		</g>
	</g>
</g>
</svg>
